<?xml version="1.0" encoding="UTF-8" standalone="no"?>
<svg
   viewBox="0 0 100 100"
   version="1.1"
   id="svg1"
   sodipodi:docname="favicon.svg"
   inkscape:export-filename="favicon.svg"
   inkscape:export-xdpi="96"
   inkscape:export-ydpi="96"
   inkscape:version="1.4.3 (fcd0343856, 2026-01-01)"
   xmlns:inkscape="http://www.inkscape.org/namespaces/inkscape"
   xmlns:sodipodi="http://sodipodi.sourceforge.net/DTD/sodipodi-0.dtd"
   xmlns:xlink="http://www.w3.org/1999/xlink"
   xmlns="http://www.w3.org/2000/svg"
   xmlns:svg="http://www.w3.org/2000/svg">
  <defs
     id="defs1">
    <linearGradient
       id="linearGradient5"
       inkscape:collect="always">
      <stop
         style="stop-color:#000000;stop-opacity:1;"
         offset="0"
         id="stop6" />
      <stop
         style="stop-color:#000000;stop-opacity:0;"
         offset="1"
         id="stop7" />
    </linearGradient>
    <radialGradient
       inkscape:collect="always"
       xlink:href="#linearGradient5"
       id="radialGradient7"
       cx="17.532608"
       cy="18.458523"
       fx="17.532608"
       fy="18.458523"
       r="6.036443"
       gradientTransform="matrix(1.3455047,-1.0268419,0.48137544,0.78815857,-14.943078,22.066388)"
       gradientUnits="userSpaceOnUse" />
  </defs>
  <sodipodi:namedview
     id="namedview1"
     pagecolor="#505050"
     bordercolor="#ffffff"
     borderopacity="1"
     inkscape:showpageshadow="0"
     inkscape:pageopacity="0"
     inkscape:pagecheckerboard="1"
     inkscape:deskcolor="#505050"
     showguides="false"
     inkscape:zoom="7.71"
     inkscape:cx="52.788586"
     inkscape:cy="56.225681"
     inkscape:window-width="1920"
     inkscape:window-height="1003"
     inkscape:window-x="0"
     inkscape:window-y="40"
     inkscape:window-maximized="1"
     inkscape:current-layer="svg1" />
  <path
     sodipodi:type="spiral"
     style="fill:#ff0000;fill-rule:evenodd;stroke:#000000"
     id="path1"
     sodipodi:cx="15.434501"
     sodipodi:cy="21.530479"
     sodipodi:expansion="1"
     sodipodi:revolution="3.0756841"
     sodipodi:radius="6.3633213"
     sodipodi:argument="-21.536846"
     sodipodi:t0="0"
     d="m 15.434501,21.530479 c -0.279631,-0.136563 0.04613,-0.444312 0.226978,-0.464764 0.490099,-0.05542 0.763788,0.502655 0.70255,0.918721 -0.109539,0.744243 -0.932622,1.109954 -1.610463,0.940336 -0.994759,-0.248921 -1.463669,-1.367441 -1.178123,-2.302205 0.380588,-1.245893 1.803856,-1.820436 2.993948,-1.415909 1.49761,0.509056 2.17875,2.240997 1.653696,3.68569 -0.635912,1.749717 -2.678544,2.537952 -4.377433,1.891482 -2.002082,-0.761844 -2.897712,-3.116341 -2.129268,-5.069175 0.8872,-2.254625 3.554305,-3.257845 5.760918,-2.367054 2.507293,1.012172 3.618236,3.992387 2.60484,6.45266 -1.136877,2.760053 -4.430557,3.978817 -7.144403,2.842626 C 9.9248581,25.381499 8.5982003,21.774097 9.8573288,18.806742 10.24753,17.887165 10.860972,17.067836 11.629472,16.430125"
     transform="matrix(5.6370778,0,0,5.0428723,-33.073926,-67.914646)" />
  <path
     sodipodi:type="spiral"
     style="fill:#ff0000;fill-rule:evenodd;stroke:url(#radialGradient7);fill-opacity:1"
     id="path1-4"
     sodipodi:cx="15.434501"
     sodipodi:cy="21.530479"
     sodipodi:expansion="1"
     sodipodi:revolution="3.0756841"
     sodipodi:radius="6.3633213"
     sodipodi:argument="-21.536846"
     sodipodi:t0="0"
     d="m 15.434501,21.530479 c -0.279631,-0.136563 0.04613,-0.444312 0.226978,-0.464764 0.490099,-0.05542 0.763788,0.502655 0.70255,0.918721 -0.109539,0.744243 -0.932622,1.109954 -1.610463,0.940336 -0.994759,-0.248921 -1.463669,-1.367441 -1.178123,-2.302205 0.380588,-1.245893 1.803856,-1.820436 2.993948,-1.415909 1.49761,0.509056 2.17875,2.240997 1.653696,3.68569 -0.635912,1.749717 -2.678544,2.537952 -4.377433,1.891482 -2.002082,-0.761844 -2.897712,-3.116341 -2.129268,-5.069175 0.8872,-2.254625 3.554305,-3.257845 5.760918,-2.367054 2.507293,1.012172 3.618236,3.992387 2.60484,6.45266 -1.136877,2.760053 -4.430557,3.978817 -7.144403,2.842626 C 9.9248581,25.381499 8.5982003,21.774097 9.8573288,18.806742 10.24753,17.887165 10.860972,17.067836 11.629472,16.430125"
     transform="matrix(5.6370778,0,0,5.0428723,-33.073926,-67.914646)" />
</svg>
